<?xml version="1.0" encoding="utf-8"?>
<!-- Generator: Adobe Illustrator 25.2.0, SVG Export Plug-In . SVG Version: 6.00 Build 0)  -->
<svg version="1.1" id="Layer_1" xmlns="http://www.w3.org/2000/svg" xmlns:xlink="http://www.w3.org/1999/xlink" x="0px" y="0px"
	 viewBox="0 0 1269.7 487" style="enable-background:new 0 0 1269.7 487;" xml:space="preserve">
<style type="text/css">
	.st0{fill:#0958E8;}
</style>
<image style="display:none;overflow:visible;" width="2612" height="1062" xlink:href="../../../../Desktop/Screen Shot 2021-04-03 at 11.58.09 PM.png"  transform="matrix(0.5 0 0 0.5 -25.0855 -30.9303)">
</image>
<path class="st0" d="M0,0c2.1,9,5.3,21.2,10.7,35.2C15.6,48.1,21.1,62.5,31.2,77c18.2,26.2,41.7,39,52.9,45
	c24.1,12.9,46.8,16.2,61.6,18.6c48.2,7.5,231.3,7.5,231.3,7.5c18,0,31.7,0.2,54,0c11-0.1,35.2-9.1,54.9-32.3
	c1.9-2.3,6.3-7.7,11.1-14.5c7.4-10.5,8.9-14.3,14.5-22.7c1.9-2.8,9-13.2,20.2-24.6c5.3-5.4,13.2-13.3,25.5-21.2
	c9.8-6.3,18.4-10,23.6-12c14.4-5.6,26.1-7.3,32.8-8.2c10.1-1.4,18.2-1.5,22.7-1.4c17,0.2,30.2,3.1,36.6,4.8
	c7,1.8,18.8,5.4,32.3,12.5c12.8,6.7,21.7,13.8,26,17.3c2.3,1.9,8.7,7.4,15.9,15.4c6.4,7.1,10.9,13.5,13.5,17.3
	c4.2,6.3,4.9,8.3,9.6,15.9c4.1,6.6,7.2,11.3,11.6,16.9c3.9,4.9,9.2,11.6,17.8,18.3c3.9,3.1,10.5,8.1,20.2,12
	c11.1,4.5,15.9,4.4,29.4,5.3l97.4,1.6c61,0.9,140.7-4,140.7-4c9.2-1,55.8-6,88.7-17.8c13.9-5,22.1-10,26-12.5
	c11.4-7.4,18.8-15.2,23.1-19.8c9-9.5,14.4-17.9,17.8-23.1c3.2-4.9,8.2-13.2,13-24.1c1.4-3.1,4.6-10.6,7.7-20.7
	c2.9-9.4,4.7-17.8,5.8-24.6V487H0V0z"/>
</svg>
