<svg height="469.33333pt" viewBox="0 0 469.33333 469.33333" width="469.33333pt" xmlns="http://www.w3.org/2000/svg"><path d="m410.667969 0h-352c-32.363281 0-58.667969 26.304688-58.667969 58.667969v352c0 32.363281 26.304688 58.664062 58.667969 58.664062h352c32.363281 0 58.664062-26.300781 58.664062-58.664062v-352c0-32.363281-26.300781-58.667969-58.664062-58.667969zm0 0" fill="#ffffff" opacity="0.3"/><path d="m356.414062 367.082031c-4.15625 4.160157-9.621093 6.25-15.082031 6.25-5.460937 0-10.921875-2.089843-15.082031-6.25l-106.664062-106.667969c-4.011719-3.988281-6.253907-9.40625-6.253907-15.082031v-144c0-11.796875 9.539063-21.332031 21.335938-21.332031s21.332031 9.535156 21.332031 21.332031v135.167969l100.414062 100.417969c8.34375 8.339843 8.34375 21.824219 0 30.164062zm0 0" fill="#1252cc"/></svg>