<?xml version="1.0" encoding="utf-8"?>
<!-- Generator: Adobe Illustrator 25.2.0, SVG Export Plug-In . SVG Version: 6.00 Build 0)  -->
<svg version="1.1" id="Layer_1" xmlns:svgjs="http://svgjs.com/svgjs"
	 xmlns="http://www.w3.org/2000/svg" xmlns:xlink="http://www.w3.org/1999/xlink" x="0px" y="0px" viewBox="0 0 512 183.1"
	 style="enable-background:new 0 0 512 183.1;" xml:space="preserve">
<style type="text/css">
	.st0{fill:#FFFFFF;}
</style>
<g transform="matrix(1,0,0,1,0,0)">
	<g>
		<path class="st0" d="M463.8,44.7c-8.2-5.4-17.7-10.5-28.3-15.1l-34.1-12.3C366.3,7,324,0.6,278.4,0c-0.4,0-0.7,0-1.1,0
			c-0.4,0-0.7,0-1.1,0C198.4-0.3,89.6,15.2,49.7,40.6C20.4,56.5,0.3,87.5,0,123.2c-0.1,15.8,3.7,30.8,10.4,44
			c2.6,6.6,9,11.3,16.5,11.4l135,1.2c7,0.1,13.2-4,16.1-9.9l0,0c7.4-13.3,11.6-28.6,11.8-45c0.1-11-1.7-21.6-5.1-31.4
			c16.5-1.5,74-1.3,91.7-1.3c17.6,0.2,34.8,1.3,51.2,3.1c-3.5,9.8-5.5,20.3-5.5,31.3c-0.1,16.3,3.8,31.7,10.9,45.2l0.1,0
			c2.9,5.9,8.8,10.1,15.9,10.2l135,1.2c7.6,0.1,14-4.5,16.7-11.1c7-13.1,11-28,11.1-43.8C512.3,92.4,492.8,61.2,463.8,44.7z"/>
	</g>
</g>
</svg>
