<?xml version="1.0" encoding="utf-8"?>
<!-- Generator: Adobe Illustrator 25.2.0, SVG Export Plug-In . SVG Version: 6.00 Build 0)  -->
<svg version="1.1" id="Capa_1" xmlns="http://www.w3.org/2000/svg" xmlns:xlink="http://www.w3.org/1999/xlink" x="0px" y="0px"
	 viewBox="0 0 512 512" style="enable-background:new 0 0 512 512;" xml:space="preserve">
<style type="text/css">
	.st0{display:none;fill:#F8F7F8;}
	.st1{display:none;fill:#EFEDEE;}
	.st2{fill:#1B5CD6;}
	.st3{display:none;fill:#EA9A98;}
	.st4{display:none;fill:#DE6A66;}
	.st5{fill:#F5F5F7;}
	.st6{display:none;fill:#B1F5D5;}
	.st7{display:none;fill:#91F2C5;}
</style>
<g>
	<path class="st0" d="M461.4,394.8c28,0,50.6-22.7,50.6-50.6s-22.7-50.6-50.6-50.6h-390v101.7L461.4,394.8z"/>
	<path class="st0" d="M50.6,218.4c-28,0-50.6-22.7-50.6-50.6s22.7-50.6,50.6-50.6h394.6v101.2L50.6,218.4L50.6,218.4z"/>
	<g>
		<path class="st1" d="M334.6,117.2c-7.8,14.7-12.2,31.4-12.2,49.2c0,7.7,0.8,15.2,2.4,22.5c1.1,5-2.7,9.8-7.8,9.8H52.8
			c-26.5,0-48.3-20.4-50.4-46.3C0.8,157.2,0,162.4,0,167.8c0,28,22.7,50.6,50.6,50.6h394.6v-19.8v-81.5L334.6,117.2z"/>
		<path class="st2" d="M50.6,185.4c-9.7,0-17.6-7.9-17.6-17.6s7.9-17.6,17.6-17.6h363.1v35.3H50.6z"/>
		<path class="st3" d="M322.4,166.3c0,6.5,0.6,12.9,1.8,19.1h89.6v-35.3h-90.1C322.8,155.4,322.4,160.8,322.4,166.3z"/>
		<circle class="st2" cx="427.5" cy="166.3" r="84.5"/>
		<path class="st4" d="M368.8,167.4c0-43.4,32.8-79.2,75-84c-5.3-1-10.7-1.6-16.3-1.6c-46.7,0-84.5,37.8-84.5,84.5
			s37.8,84.5,84.5,84.5c3.2,0,6.4-0.2,9.5-0.5C398.1,242.7,368.8,208.5,368.8,167.4z"/>
		<circle class="st5" cx="427.5" cy="166.3" r="49.7"/>
		<path class="st1" d="M474.8,376.9l-278.9,0.4c-5.4,0-9.6-5-8.5-10.3c1.4-6.9,2.2-14,2.2-21.3c0-18.9-5-36.7-13.8-52.1H71.4v101.7
			l390-0.5c20.6,0,38.3-12.3,46.2-30C498.8,372.4,487.3,376.9,474.8,376.9L474.8,376.9z"/>
		<path class="st2" d="M461.4,361.9c9.7,0,17.6-7.9,17.6-17.6s-7.9-17.6-17.6-17.6H88.1v35.3L461.4,361.9z"/>
		<path class="st6" d="M88.1,361.9h100.2c0.8-5.3,1.2-10.7,1.2-16.2c0-6.5-0.6-12.9-1.8-19.1H88.1L88.1,361.9L88.1,361.9z"/>
		<circle class="st2" cx="84.5" cy="345.7" r="84.5"/>
		<path class="st7" d="M107.4,426.1c-46.7,0-84.5-37.8-84.5-84.5c0-37.5,24.5-69.3,58.3-80.4C36.1,263,0,300.1,0,345.7
			c0,46.7,37.8,84.5,84.5,84.5c9.1,0,18-1.5,26.2-4.2C109.6,426.1,108.5,426.1,107.4,426.1z"/>
		<circle class="st5" cx="84.5" cy="345.7" r="49.7"/>
	</g>
</g>
</svg>
