<?xml version="1.0" encoding="utf-8"?>
<!-- Generator: Adobe Illustrator 25.2.0, SVG Export Plug-In . SVG Version: 6.00 Build 0)  -->
<svg version="1.1" id="Capa_1" xmlns="http://www.w3.org/2000/svg" xmlns:xlink="http://www.w3.org/1999/xlink" x="0px" y="0px"
	 viewBox="0 0 420.4 375.4" style="enable-background:new 0 0 420.4 375.4;" xml:space="preserve">
<style type="text/css">
	.st0{fill:#FFF1DF;}
	.st1{fill:#ECD5AF;}
</style>
<g>
	<g>
		<path class="st0" d="M417.5,160.1c-9.8,57.9-33,125.6-60.8,169.4h0c-16.1,25.4-33.7,42.7-51.2,45.5
			c-47.6,7.7-23.1-127.4-95.2-127.4c-14.2,0-24.6,5.2-32.6,13.6C145,295.3,153.2,381.3,115,375.1c-47.6-7.7-96.6-123.6-112-215
			C-7.9,95.5,9.4,13.4,81.5,1.8c72.1-11.6,92.7,37.3,128.7,37.3c17.4,0,31.2-11.4,49-21.9c19-11.2,42.5-21.4,79.7-15.4
			C411,13.4,428.4,95.5,417.5,160.1L417.5,160.1z"/>
		<g>
			<path class="st1" d="M356.6,329.5c-16.1,25.4-33.7,42.7-51.2,45.5c-47.6,7.7-23.1-127.4-95.2-127.4c57.6,0,76.4,28.2,85.8,55
				C305.4,329.5,316.6,349.7,356.6,329.5L356.6,329.5z"/>
			<path class="st1" d="M259.2,17.2c-23.6,45.2-42.4,50.6-67.9,50.6s-75.2-51-107.4,12.1c-32.2,63.1,0.8,195,93.7,181.4
				C145,295.3,153.2,381.3,115,375.1c-47.6-7.7-96.6-123.6-112-215C-7.9,95.5,9.4,13.4,81.5,1.8c72.1-11.6,92.7,37.3,128.7,37.3
				C227.6,39.1,241.5,27.7,259.2,17.2L259.2,17.2z"/>
		</g>
	</g>
</g>
</svg>
